<svg width="86" height="89" viewBox="0 0 86 89" fill="none" xmlns="http://www.w3.org/2000/svg">
<path d="M45.5443 8.49218C45.2112 8.14461 44.8148 7.86873 44.3782 7.68046C43.9415 7.49219 43.4732 7.39526 43.0001 7.39526C42.5271 7.39526 42.0587 7.49219 41.622 7.68046C41.1854 7.86873 40.7891 8.14461 40.4559 8.49218L8.20594 41.8672C7.87008 42.2119 7.6035 42.6221 7.42158 43.074C7.23966 43.5259 7.146 44.0106 7.146 44.5001C7.146 44.9896 7.23966 45.4743 7.42158 45.9262C7.6035 46.3781 7.87008 46.7883 8.20594 47.133C8.54077 47.4767 8.93786 47.7486 9.37444 47.9332C9.81103 48.1177 10.2785 48.2113 10.7501 48.2084H14.3334V74.1668C14.3334 76.1338 15.0885 78.0202 16.4325 79.4111C17.7765 80.802 19.5994 81.5834 21.5001 81.5834H64.5001C66.4008 81.5834 68.2237 80.802 69.5677 79.4111C70.9117 78.0202 71.6668 76.1338 71.6668 74.1668V48.2084H75.2501C76.2005 48.2084 77.1119 47.8177 77.7839 47.1223C78.4559 46.4268 78.8334 45.4836 78.8334 44.5001C78.8362 44.0121 78.7458 43.5283 78.5675 43.0764C78.3891 42.6246 78.1264 42.2137 77.7943 41.8672L45.5443 8.49218ZM21.5001 74.1668V38.6038L43.0001 16.3538L64.5001 38.6038V74.1668H21.5001Z" fill="#9C2E29"/>
<path d="M29.4961 38.8789C30.7852 37.6289 32.4062 37.0039 34.3594 37.0039C36.3125 37.0039 37.9401 37.6289 39.2422 38.8789C40.5443 40.1289 41.1953 41.6784 41.1953 43.5273C41.1953 45.3763 40.5443 46.9258 39.2422 48.1758C37.9401 49.4128 36.3125 50.0312 34.3594 50.0312C32.3802 50.0312 30.7526 49.4128 29.4766 48.1758C28.2005 46.9258 27.5625 45.3763 27.5625 43.5273C27.5625 41.6784 28.207 40.1289 29.4961 38.8789ZM53.6367 40.0312L34.3984 64.0742L30.8828 61.2812L50.1992 37.2773L53.6367 40.0312ZM34.3594 41.3594C33.7344 41.3594 33.207 41.5612 32.7773 41.9648C32.3607 42.3685 32.1523 42.8893 32.1523 43.5273C32.1523 44.1654 32.3542 44.6862 32.7578 45.0898C33.1745 45.4805 33.7083 45.6758 34.3594 45.6758C35.0104 45.6758 35.5378 45.4805 35.9414 45.0898C36.3581 44.6992 36.5664 44.1784 36.5664 43.5273C36.5664 42.8763 36.3581 42.3555 35.9414 41.9648C35.5378 41.5612 35.0104 41.3594 34.3594 41.3594ZM45.9219 52.5508C47.224 51.3008 48.8516 50.6758 50.8047 50.6758C52.7578 50.6758 54.3789 51.3008 55.668 52.5508C56.957 53.8008 57.6016 55.3503 57.6016 57.1992C57.6016 59.0482 56.957 60.5977 55.668 61.8477C54.3789 63.0977 52.7578 63.7227 50.8047 63.7227C48.8385 63.7227 47.2044 63.0977 45.9023 61.8477C44.6133 60.5977 43.9688 59.0482 43.9688 57.1992C43.9688 55.3503 44.6198 53.8008 45.9219 52.5508ZM52.3867 55.6172C51.9831 55.2266 51.4557 55.0312 50.8047 55.0312C50.1536 55.0312 49.6198 55.2331 49.2031 55.6367C48.7995 56.0273 48.5977 56.5482 48.5977 57.1992C48.5977 57.8372 48.7995 58.3581 49.2031 58.7617C49.6198 59.1654 50.1536 59.3672 50.8047 59.3672C51.4557 59.3672 51.9831 59.1654 52.3867 58.7617C52.7904 58.3581 52.9922 57.8372 52.9922 57.1992C52.9922 56.5352 52.7904 56.0078 52.3867 55.6172Z" fill="#9C2E29"/>
</svg>
