<svg width="72" height="75" viewBox="0 0 72 75" fill="none" xmlns="http://www.w3.org/2000/svg">
<path d="M38.5443 1.49218C38.2112 1.14461 37.8148 0.868727 37.3782 0.68046C36.9415 0.492193 36.4732 0.395264 36.0001 0.395264C35.5271 0.395264 35.0587 0.492193 34.622 0.68046C34.1854 0.868727 33.7891 1.14461 33.4559 1.49218L1.20594 34.8672C0.87008 35.2119 0.6035 35.6221 0.421579 36.074C0.239658 36.5259 0.145996 37.0106 0.145996 37.5001C0.145996 37.9896 0.239658 38.4743 0.421579 38.9262C0.6035 39.3781 0.87008 39.7883 1.20594 40.133C1.54077 40.4767 1.93786 40.7486 2.37444 40.9332C2.81103 41.1177 3.27852 41.2113 3.75011 41.2084H7.33344V67.1668C7.33344 69.1338 8.0885 71.0202 9.43251 72.4111C10.7765 73.802 12.5994 74.5834 14.5001 74.5834H57.5001C59.4008 74.5834 61.2237 73.802 62.5677 72.4111C63.9117 71.0202 64.6668 69.1338 64.6668 67.1668V41.2084H68.2501C69.2005 41.2084 70.1119 40.8177 70.7839 40.1223C71.4559 39.4268 71.8334 38.4836 71.8334 37.5001C71.8362 37.0121 71.7458 36.5283 71.5675 36.0764C71.3891 35.6246 71.1264 35.2137 70.7943 34.8672L38.5443 1.49218ZM14.5001 67.1668V31.6038L36.0001 9.35385L57.5001 31.6038V67.1668H14.5001Z" fill="#9C2E29"/>
</svg>
