<svg width="48" height="43" viewBox="0 0 48 43" fill="none" xmlns="http://www.w3.org/2000/svg">
<path d="M7.149 2.062H13.209L13.156 5.637L7.149 11.043V2.062V2.062ZM23.907 0.0830002L0 21.169L2.52 24L24.005 5.046L45.486 24L48 21.169L24.097 0.0830002L24 0L23.907 0.0830002V0.0830002Z" fill="#9C2E29"/>
<path d="M24 41.3333C19.8583 41.3333 16.5 39.1817 16.5 35.5V35.4267C16.5 33.6617 17.615 32.25 19.3125 31.3333C20.9367 30.4567 21.8967 28.8417 21.6567 27.1667L21.1875 24.6667L22.9258 25.3292C26.0567 26.5208 28.6642 28.5892 30.3542 31.2175C31.0972 32.3592 31.4951 33.6911 31.5 35.0533V35.5C31.5 36.8017 31.08 37.9125 30.3542 38.8042" stroke="#9C2E29" stroke-width="2" stroke-linecap="round" stroke-linejoin="round"/>
<path d="M24 41.3333C22.6192 41.3333 21.5 40.1392 21.5 38.6667C21.5 37.5 22.3467 36.5658 23.0917 35.71L24 34.6667L24.9083 35.71C25.6533 36.5667 26.5 37.5 26.5 38.6667C26.5 40.1392 25.3808 41.3333 24 41.3333Z" stroke="#9C2E29" stroke-width="2" stroke-linecap="round" stroke-linejoin="round"/>
</svg>
