<svg width="60" height="60" viewBox="0 0 60 60" fill="none" xmlns="http://www.w3.org/2000/svg">
<path d="M22.5 37.5C15.825 37.5 2.5 40.85 2.5 47.5V52.5H42.5V47.5C42.5 40.85 29.175 37.5 22.5 37.5ZM7.5 47.5C8.05 45.7 15.775 42.5 22.5 42.5C29.25 42.5 37 45.725 37.5 47.5H7.5ZM11.85 22.5H12.5C12.5 28.025 16.975 32.5 22.5 32.5C28.025 32.5 32.5 28.025 32.5 22.5H33.15C33.825 22.5 34.375 21.95 34.375 21.275V21.225C34.375 20.9001 34.2459 20.5885 34.0162 20.3588C33.7865 20.1291 33.4749 20 33.15 20H32.5C32.5 16.3 30.475 13.125 27.5 11.375V13.75C27.5 14.45 26.95 15 26.25 15C25.55 15 25 14.45 25 13.75V10.35C24.2 10.15 23.375 10 22.5 10C21.625 10 20.8 10.15 20 10.35V13.75C20 14.45 19.45 15 18.75 15C18.05 15 17.5 14.45 17.5 13.75V11.375C14.525 13.125 12.5 16.3 12.5 20H11.85C11.6891 20 11.5298 20.0317 11.3812 20.0932C11.2326 20.1548 11.0975 20.245 10.9838 20.3588C10.87 20.4725 10.7798 20.6076 10.7182 20.7562C10.6567 20.9048 10.625 21.0641 10.625 21.225V21.3C10.625 21.95 11.175 22.5 11.85 22.5ZM27.5 22.5C27.5 25.25 25.25 27.5 22.5 27.5C19.75 27.5 17.5 25.25 17.5 22.5H27.5ZM54.95 15.575L57.275 13.5L55.4 10.25L52.425 11.225C52.075 10.95 51.675 10.725 51.25 10.55L50.625 7.5H46.875L46.25 10.55C45.825 10.725 45.425 10.95 45.05 11.225L42.1 10.25L40.225 13.5L42.55 15.575C42.5 16 42.5 16.45 42.55 16.875L40.225 19L42.1 22.25L45.1 21.3C45.425 21.55 45.8 21.75 46.175 21.925L46.875 25H50.625L51.3 21.95C51.7 21.775 52.05 21.575 52.4 21.325L55.375 22.275L57.25 19.025L54.925 16.9C55 16.425 54.975 16 54.95 15.575ZM48.75 19.375C47.9212 19.375 47.1263 19.0458 46.5403 18.4597C45.9542 17.8737 45.625 17.0788 45.625 16.25C45.625 15.4212 45.9542 14.6263 46.5403 14.0403C47.1263 13.4542 47.9212 13.125 48.75 13.125C49.5788 13.125 50.3737 13.4542 50.9597 14.0403C51.5458 14.6263 51.875 15.4212 51.875 16.25C51.875 17.0788 51.5458 17.8737 50.9597 18.4597C50.3737 19.0458 49.5788 19.375 48.75 19.375ZM48.5 26.975L46.375 27.675C46.125 27.475 45.85 27.325 45.55 27.2L45.1 25H42.425L41.975 27.175C41.675 27.3 41.375 27.475 41.125 27.65L39.025 26.95L37.675 29.275L39.325 30.75C39.3 31.075 39.3 31.375 39.325 31.675L37.675 33.2L39.025 35.525L41.175 34.85C41.425 35.025 41.675 35.175 41.95 35.3L42.4 37.5H45.075L45.55 35.325C45.825 35.2 46.1 35.05 46.35 34.875L48.475 35.55L49.825 33.225L48.175 31.7C48.2 31.375 48.2 31.075 48.175 30.775L49.825 29.3L48.5 26.975ZM43.75 33.475C42.525 33.475 41.525 32.475 41.525 31.25C41.525 30.025 42.525 29.025 43.75 29.025C44.975 29.025 45.975 30.025 45.975 31.25C45.975 32.475 44.975 33.475 43.75 33.475Z" fill="#9C2E29"/>
</svg>
