<svg width="90" height="90" viewBox="0 0 90 90" fill="none" xmlns="http://www.w3.org/2000/svg">
<circle cx="45" cy="45" r="43.5" stroke="#9C2E29" stroke-width="3"/>
<path d="M23.8281 26.6328C29.4792 21.9974 36.1979 19.6797 43.9844 19.6797C50.3385 19.6797 55.4557 21.2422 59.3359 24.3672C63.2422 27.4922 65.1953 31.8802 65.1953 37.5312C65.1953 41.6719 63.9714 45.2005 61.5234 48.1172C59.1016 51.0078 55.5599 53.1562 50.8984 54.5625C48.4245 55.2656 47.1875 56.6458 47.1875 58.7031C47.1875 59.5104 47.2656 60.1875 47.4219 60.7344L37.1094 61.75C36.5885 60.1354 36.3281 58.625 36.3281 57.2188C36.3281 54.6146 37.1224 52.388 38.7109 50.5391C40.2995 48.6901 42.6823 47.3099 45.8594 46.3984C51.0677 44.9401 53.6719 42.1927 53.6719 38.1562C53.6719 35.5781 52.8125 33.599 51.0938 32.2188C49.375 30.8385 46.849 30.1484 43.5156 30.1484C38.2812 30.1484 33.6719 31.75 29.6875 34.9531L23.8281 26.6328ZM42.8125 65.0312C44.7396 65.0312 46.3542 65.6562 47.6562 66.9062C48.9583 68.1562 49.6094 69.7708 49.6094 71.75C49.6094 73.7292 48.9323 75.3438 47.5781 76.5938C46.25 77.8438 44.6615 78.4688 42.8125 78.4688C40.9896 78.4688 39.401 77.8438 38.0469 76.5938C36.6927 75.3177 36.0156 73.7031 36.0156 71.75C36.0156 69.7708 36.6797 68.1562 38.0078 66.9062C39.362 65.6562 40.9635 65.0312 42.8125 65.0312Z" fill="#9C2E29"/>
</svg>
