<svg width="65" height="65" viewBox="0 0 65 65" fill="none" xmlns="http://www.w3.org/2000/svg">
<path fill-rule="evenodd" clip-rule="evenodd" d="M38.9619 33.4032C38.5884 32.347 37.8966 31.4326 36.9819 30.7858C36.0671 30.139 34.9743 29.7917 33.854 29.7917V28.4375H31.1457V29.7917C29.7091 29.7917 28.3313 30.3624 27.3155 31.3782C26.2997 32.394 25.729 33.7717 25.729 35.2083C25.729 36.6449 26.2997 38.0227 27.3155 39.0385C28.3313 40.0543 29.7091 40.625 31.1457 40.625V46.0417C29.9675 46.0417 28.9641 45.2901 28.5904 44.2366C28.5349 44.0642 28.4455 43.9047 28.3273 43.7675C28.2091 43.6303 28.0646 43.5182 27.9024 43.4379C27.7401 43.3575 27.5634 43.3105 27.3827 43.2996C27.2019 43.2887 27.0209 43.3141 26.8501 43.3745C26.6794 43.4348 26.5225 43.5287 26.3887 43.6507C26.255 43.7727 26.147 43.9204 26.0713 44.0848C25.9955 44.2493 25.9535 44.4273 25.9478 44.6082C25.942 44.7892 25.9726 44.9695 26.0378 45.1384C26.4113 46.1947 27.1031 47.1091 28.0178 47.7559C28.9326 48.4027 30.0253 48.75 31.1457 48.75V50.1042H33.854V48.75C35.2906 48.75 36.6683 48.1793 37.6842 47.1635C38.7 46.1477 39.2707 44.7699 39.2707 43.3333C39.2707 41.8967 38.7 40.519 37.6842 39.5032C36.6683 38.4874 35.2906 37.9167 33.854 37.9167V32.5C34.4141 32.4999 34.9605 32.6734 35.4179 32.9967C35.8753 33.3199 36.2212 33.7771 36.408 34.3051C36.5276 34.6438 36.7768 34.9211 37.1008 35.076C37.2613 35.1527 37.4353 35.197 37.6129 35.2065C37.7905 35.216 37.9682 35.1904 38.1359 35.1311C38.3036 35.0719 38.458 34.9803 38.5902 34.8614C38.7225 34.7425 38.8301 34.5987 38.9068 34.4383C38.9835 34.2778 39.0278 34.1038 39.0373 33.9262C39.0467 33.7486 39.0211 33.5709 38.9619 33.4032ZM31.1457 32.5C30.4274 32.5 29.7385 32.7853 29.2306 33.2933C28.7227 33.8012 28.4373 34.49 28.4373 35.2083C28.4373 35.9266 28.7227 36.6155 29.2306 37.1234C29.7385 37.6313 30.4274 37.9167 31.1457 37.9167V32.5ZM33.854 46.0417C34.5723 46.0417 35.2612 45.7563 35.7691 45.2484C36.277 44.7405 36.5623 44.0516 36.5623 43.3333C36.5623 42.615 36.277 41.9262 35.7691 41.4183C35.2612 40.9103 34.5723 40.625 33.854 40.625V46.0417Z" fill="#9C2E29"/>
<path fill-rule="evenodd" clip-rule="evenodd" d="M17.8112 11.6743C21.1343 10.0479 26.5862 8.125 32.5526 8.125C38.3945 8.125 43.7028 9.96802 47.0084 11.5727L47.1952 11.6634C48.1919 12.1564 48.9963 12.6222 49.5623 13L44.56 20.3125C56.0921 32.1019 64.9998 56.8709 32.5526 56.8709C0.105435 56.8709 8.77346 32.5515 20.4057 20.3125L15.436 13C15.8192 12.7495 16.3053 12.4583 16.8849 12.1496C17.172 11.9952 17.4807 11.8368 17.8112 11.6756V11.6743ZM41.3452 20.215L45.3495 14.3609C41.6255 14.6291 37.1947 15.5039 32.9291 16.7389C29.8822 17.6191 26.4968 17.485 23.3619 16.9068C22.5719 16.7603 21.7874 16.586 21.0097 16.3841L23.6097 20.2123C29.1821 22.1961 35.7715 22.1961 41.3452 20.215ZM22.0456 22.5198C28.566 25.0385 36.4025 25.0385 42.9228 22.5171C45.6445 25.3861 47.9213 28.6466 49.6774 32.1899C51.5083 35.9247 52.5049 39.6581 52.3424 42.8756C52.1853 45.9807 50.9639 48.6335 48.1743 50.6052C45.2669 52.6595 40.377 54.1626 32.5513 54.1626C24.7174 54.1626 19.8045 52.6852 16.87 50.654C14.0601 48.7067 12.8265 46.0904 12.6518 43.0273C12.469 39.845 13.444 36.1305 15.268 32.37C17.0081 28.7842 19.4362 25.3324 22.0456 22.5198ZM20.4884 13.4279C21.5717 13.7502 22.7038 14.0305 23.8521 14.2431C26.7636 14.7794 29.6831 14.8579 32.1748 14.1361C35.0784 13.2903 38.0317 12.625 41.0175 12.1442C38.5259 11.394 35.6117 10.8333 32.5513 10.8333C27.8862 10.8333 23.5352 12.1347 20.4884 13.4279Z" fill="#9C2E29"/>
</svg>
