<svg width="51" height="51" viewBox="0 0 51 51" fill="none" xmlns="http://www.w3.org/2000/svg">
<path d="M6.375 6.375C6.375 4.68424 7.04665 3.06274 8.24219 1.86719C9.43774 0.67165 11.0592 0 12.75 0L38.25 0C39.9408 0 41.5623 0.67165 42.7578 1.86719C43.9534 3.06274 44.625 4.68424 44.625 6.375V44.625C44.625 46.3158 43.9534 47.9373 42.7578 49.1328C41.5623 50.3284 39.9408 51 38.25 51H12.75C11.0592 51 9.43774 50.3284 8.24219 49.1328C7.04665 47.9373 6.375 46.3158 6.375 44.625V6.375ZM12.75 7.96875V14.3438C12.75 14.7664 12.9179 15.1718 13.2168 15.4707C13.5157 15.7696 13.9211 15.9375 14.3438 15.9375H36.6562C37.0789 15.9375 37.4843 15.7696 37.7832 15.4707C38.0821 15.1718 38.25 14.7664 38.25 14.3438V7.96875C38.25 7.54606 38.0821 7.14069 37.7832 6.8418C37.4843 6.54291 37.0789 6.375 36.6562 6.375H14.3438C13.9211 6.375 13.5157 6.54291 13.2168 6.8418C12.9179 7.14069 12.75 7.54606 12.75 7.96875ZM12.75 20.7188V23.9062C12.75 24.3289 12.9179 24.7343 13.2168 25.0332C13.5157 25.3321 13.9211 25.5 14.3438 25.5H17.5312C17.9539 25.5 18.3593 25.3321 18.6582 25.0332C18.9571 24.7343 19.125 24.3289 19.125 23.9062V20.7188C19.125 20.2961 18.9571 19.8907 18.6582 19.5918C18.3593 19.2929 17.9539 19.125 17.5312 19.125H14.3438C13.9211 19.125 13.5157 19.2929 13.2168 19.5918C12.9179 19.8907 12.75 20.2961 12.75 20.7188ZM14.3438 28.6875C13.9211 28.6875 13.5157 28.8554 13.2168 29.1543C12.9179 29.4532 12.75 29.8586 12.75 30.2812V33.4688C12.75 33.8914 12.9179 34.2968 13.2168 34.5957C13.5157 34.8946 13.9211 35.0625 14.3438 35.0625H17.5312C17.9539 35.0625 18.3593 34.8946 18.6582 34.5957C18.9571 34.2968 19.125 33.8914 19.125 33.4688V30.2812C19.125 29.8586 18.9571 29.4532 18.6582 29.1543C18.3593 28.8554 17.9539 28.6875 17.5312 28.6875H14.3438ZM12.75 39.8438V43.0312C12.75 43.4539 12.9179 43.8593 13.2168 44.1582C13.5157 44.4571 13.9211 44.625 14.3438 44.625H17.5312C17.9539 44.625 18.3593 44.4571 18.6582 44.1582C18.9571 43.8593 19.125 43.4539 19.125 43.0312V39.8438C19.125 39.4211 18.9571 39.0157 18.6582 38.7168C18.3593 38.4179 17.9539 38.25 17.5312 38.25H14.3438C13.9211 38.25 13.5157 38.4179 13.2168 38.7168C12.9179 39.0157 12.75 39.4211 12.75 39.8438ZM23.9062 19.125C23.4836 19.125 23.0782 19.2929 22.7793 19.5918C22.4804 19.8907 22.3125 20.2961 22.3125 20.7188V23.9062C22.3125 24.3289 22.4804 24.7343 22.7793 25.0332C23.0782 25.3321 23.4836 25.5 23.9062 25.5H27.0938C27.5164 25.5 27.9218 25.3321 28.2207 25.0332C28.5196 24.7343 28.6875 24.3289 28.6875 23.9062V20.7188C28.6875 20.2961 28.5196 19.8907 28.2207 19.5918C27.9218 19.2929 27.5164 19.125 27.0938 19.125H23.9062ZM22.3125 30.2812V33.4688C22.3125 33.8914 22.4804 34.2968 22.7793 34.5957C23.0782 34.8946 23.4836 35.0625 23.9062 35.0625H27.0938C27.5164 35.0625 27.9218 34.8946 28.2207 34.5957C28.5196 34.2968 28.6875 33.8914 28.6875 33.4688V30.2812C28.6875 29.8586 28.5196 29.4532 28.2207 29.1543C27.9218 28.8554 27.5164 28.6875 27.0938 28.6875H23.9062C23.4836 28.6875 23.0782 28.8554 22.7793 29.1543C22.4804 29.4532 22.3125 29.8586 22.3125 30.2812ZM23.9062 38.25C23.4836 38.25 23.0782 38.4179 22.7793 38.7168C22.4804 39.0157 22.3125 39.4211 22.3125 39.8438V43.0312C22.3125 43.4539 22.4804 43.8593 22.7793 44.1582C23.0782 44.4571 23.4836 44.625 23.9062 44.625H27.0938C27.5164 44.625 27.9218 44.4571 28.2207 44.1582C28.5196 43.8593 28.6875 43.4539 28.6875 43.0312V39.8438C28.6875 39.4211 28.5196 39.0157 28.2207 38.7168C27.9218 38.4179 27.5164 38.25 27.0938 38.25H23.9062ZM31.875 20.7188V23.9062C31.875 24.3289 32.0429 24.7343 32.3418 25.0332C32.6407 25.3321 33.0461 25.5 33.4688 25.5H36.6562C37.0789 25.5 37.4843 25.3321 37.7832 25.0332C38.0821 24.7343 38.25 24.3289 38.25 23.9062V20.7188C38.25 20.2961 38.0821 19.8907 37.7832 19.5918C37.4843 19.2929 37.0789 19.125 36.6562 19.125H33.4688C33.0461 19.125 32.6407 19.2929 32.3418 19.5918C32.0429 19.8907 31.875 20.2961 31.875 20.7188ZM33.4688 28.6875C33.0461 28.6875 32.6407 28.8554 32.3418 29.1543C32.0429 29.4532 31.875 29.8586 31.875 30.2812V43.0312C31.875 43.4539 32.0429 43.8593 32.3418 44.1582C32.6407 44.4571 33.0461 44.625 33.4688 44.625H36.6562C37.0789 44.625 37.4843 44.4571 37.7832 44.1582C38.0821 43.8593 38.25 43.4539 38.25 43.0312V30.2812C38.25 29.8586 38.0821 29.4532 37.7832 29.1543C37.4843 28.8554 37.0789 28.6875 36.6562 28.6875H33.4688Z" fill="#9C2E29"/>
</svg>
