<svg width="58" height="58" viewBox="0 0 58 58" fill="none" xmlns="http://www.w3.org/2000/svg">
<path d="M45.111 10.3573H35.0093C34.5145 8.94457 33.5929 7.72057 32.372 6.85459C31.151 5.9886 29.6912 5.52344 28.1943 5.52344C26.6975 5.52344 25.2376 5.9886 24.0167 6.85459C22.7958 7.72057 21.8742 8.94457 21.3793 10.3573H11.2777C9.99697 10.3611 8.76981 10.8715 7.86421 11.7771C6.95861 12.6827 6.44816 13.9099 6.44434 15.1906V49.0239C6.44816 50.3046 6.95861 51.5318 7.86421 52.4374C8.76981 53.343 9.99697 53.8534 11.2777 53.8573H45.111C46.3917 53.8534 47.6189 53.343 48.5245 52.4374C49.4301 51.5318 49.9405 50.3046 49.9443 49.0239V15.1906C49.9405 13.9099 49.4301 12.6827 48.5245 11.7771C47.6189 10.8715 46.3917 10.3611 45.111 10.3573ZM28.1943 10.3573C28.6723 10.3573 29.1395 10.499 29.537 10.7645C29.9344 11.0301 30.2441 11.4075 30.427 11.8491C30.61 12.2907 30.6578 12.7766 30.5646 13.2454C30.4713 13.7142 30.2412 14.1448 29.9032 14.4828C29.5652 14.8207 29.1346 15.0509 28.6658 15.1442C28.197 15.2374 27.7111 15.1895 27.2695 15.0066C26.8279 14.8237 26.4505 14.514 26.185 14.1166C25.9194 13.7191 25.7777 13.2519 25.7777 12.7739C25.7796 12.1336 26.0348 11.52 26.4876 11.0672C26.9404 10.6144 27.554 10.3592 28.1943 10.3573ZM23.361 22.4406L30.1035 29.1928L36.1935 23.1028L33.0277 20.0239H42.6943V29.6906L39.6107 26.5223L30.1083 36.0319L23.361 29.2798L17.1115 35.5244L13.6943 32.1073L23.361 22.4406ZM45.111 46.6073H11.2777V41.7739H45.111V46.6073Z" fill="#9C2E29"/>
</svg>
