<svg width="181" height="112" viewBox="0 0 181 112" fill="none" xmlns="http://www.w3.org/2000/svg">
<path d="M71.6185 41.5C71.664 41.333 71.7103 41.1663 71.7573 41C78.2866 17.915 99.5115 1 124.687 1C155.063 1 179.687 25.6243 179.687 56C179.687 86.3757 155.063 111 124.687 111C98.433 111 76.4753 92.6047 70.9999 68" stroke="#9C2E29" stroke-width="2"/>
<path d="M27.4766 45.0547C28.3047 45.0547 29.0703 45.1979 29.7734 45.4844C30.4818 45.7708 31.0781 46.1615 31.5625 46.6562C32.0469 47.151 32.4245 47.7422 32.6953 48.4297C32.9714 49.1172 33.1094 49.8542 33.1094 50.6406C33.1094 51.6615 32.875 52.5964 32.4062 53.4453C31.9427 54.2891 31.2786 54.9635 30.4141 55.4688C29.5495 55.974 28.5703 56.2266 27.4766 56.2266C26.6536 56.2266 25.888 56.0807 25.1797 55.7891C24.4766 55.4974 23.8828 55.1016 23.3984 54.6016C22.9141 54.1016 22.5339 53.5104 22.2578 52.8281C21.987 52.1406 21.8516 51.4115 21.8516 50.6406C21.8516 49.6146 22.0859 48.6771 22.5547 47.8281C23.0286 46.9792 23.6979 46.3047 24.5625 45.8047C25.4271 45.3047 26.3984 45.0547 27.4766 45.0547ZM27.4766 46.4766C26.6589 46.4766 25.9427 46.6615 25.3281 47.0312C24.7188 47.401 24.2578 47.8984 23.9453 48.5234C23.6328 49.1484 23.4766 49.8542 23.4766 50.6406C23.4766 51.4271 23.6354 52.1328 23.9531 52.7578C24.2708 53.3828 24.7344 53.8802 25.3438 54.25C25.9583 54.6146 26.6693 54.7969 27.4766 54.7969C28.2943 54.7969 29.0104 54.6172 29.625 54.2578C30.2396 53.8932 30.7031 53.3984 31.0156 52.7734C31.3333 52.1484 31.4922 51.4375 31.4922 50.6406C31.4922 49.8333 31.3307 49.1172 31.0078 48.4922C30.6901 47.8672 30.224 47.375 29.6094 47.0156C29 46.6562 28.2891 46.4766 27.4766 46.4766ZM41.5859 49.9062C40.9557 49.3073 40.1328 49.0078 39.1172 49.0078C38.3151 49.0078 37.6432 49.2656 37.1016 49.7812C36.5599 50.2969 36.2891 50.9896 36.2891 51.8594C36.2891 52.7656 36.5391 53.4844 37.0391 54.0156C37.5443 54.5469 38.237 54.8125 39.1172 54.8125C40.1849 54.8125 41.0339 54.4661 41.6641 53.7734L42.6094 54.75C41.75 55.7135 40.5651 56.1953 39.0547 56.1953C38.1536 56.1953 37.3724 56.0052 36.7109 55.625C36.0495 55.2448 35.5547 54.737 35.2266 54.1016C34.8984 53.4609 34.7344 52.7396 34.7344 51.9375C34.7344 51.0885 34.9297 50.3359 35.3203 49.6797C35.7109 49.0182 36.2344 48.5156 36.8906 48.1719C37.5469 47.8229 38.2786 47.6484 39.0859 47.6484C40.5026 47.6484 41.6224 48.0599 42.4453 48.8828L41.5859 49.9062ZM51.4141 47.8438V49.1875H48.4062V56H46.8359V49.1875H43.8281V47.8438H51.4141ZM53.2031 48.5938C54.1979 47.9635 55.3177 47.6484 56.5625 47.6484C57.8021 47.6484 58.7214 47.9323 59.3203 48.5C59.9245 49.0677 60.2266 49.8776 60.2266 50.9297V53.9219C60.2266 54.5521 60.4401 54.8672 60.8672 54.8672C60.9818 54.8672 61.0938 54.8438 61.2031 54.7969L61.3438 55.9844C61.1302 56.0885 60.8594 56.1406 60.5312 56.1406C60.099 56.1406 59.7526 56.0365 59.4922 55.8281C59.2318 55.6146 59.0599 55.2604 58.9766 54.7656C58.2839 55.7188 57.2292 56.1953 55.8125 56.1953C54.8333 56.1953 54.0651 55.9609 53.5078 55.4922C52.9505 55.0182 52.6719 54.3438 52.6719 53.4688C52.6719 52.6458 52.9974 52 53.6484 51.5312C54.2995 51.0625 55.1901 50.8281 56.3203 50.8281C57.138 50.8281 57.9323 50.9635 58.7031 51.2344V50.7812C58.7031 50.1875 58.5312 49.7448 58.1875 49.4531C57.8438 49.1562 57.3125 49.0078 56.5938 49.0078C55.6458 49.0078 54.724 49.2422 53.8281 49.7109L53.2031 48.5938ZM58.7188 52.4453C58.0521 52.2109 57.2734 52.0938 56.3828 52.0938C55.6484 52.0938 55.1094 52.2214 54.7656 52.4766C54.4271 52.7266 54.2578 53.0703 54.2578 53.5078C54.2578 54.4141 54.8698 54.8672 56.0938 54.8672C56.8229 54.8672 57.4427 54.6719 57.9531 54.2812C58.4635 53.8906 58.7188 53.3958 58.7188 52.7969V52.4453ZM66.7734 47.8438C67.6536 47.8438 68.349 48.0391 68.8594 48.4297C69.3698 48.8203 69.625 49.3385 69.625 49.9844C69.625 50.7344 69.3203 51.2526 68.7109 51.5391V51.6641C69.1693 51.7943 69.5208 52.026 69.7656 52.3594C70.0104 52.6927 70.1328 53.112 70.1328 53.6172C70.1328 54.3516 69.8646 54.9323 69.3281 55.3594C68.7969 55.7865 68.0208 56 67 56H62.9219V47.8438H66.7734ZM64.4375 54.6719H67.1562C68.1198 54.6719 68.6016 54.2995 68.6016 53.5547C68.6016 52.8047 68.1094 52.4297 67.125 52.4297H64.4375V54.6719ZM64.4375 51.1484H66.8672C67.2526 51.1484 67.5521 51.0599 67.7656 50.8828C67.9792 50.7005 68.0859 50.4531 68.0859 50.1406C68.0859 49.4688 67.6328 49.1328 66.7266 49.1328H64.4375V51.1484ZM78.2188 56V50.1406L73.5312 56H72.0781V47.8438H73.6094V53.7891L78.3438 47.8438H79.7578V56H78.2188ZM89.1953 47.8438V49.1875H86.1875V56H84.6172V49.1875H81.6094V47.8438H89.1953ZM92.6094 47.8438V50.5469C93.3333 50.1927 94.0807 50.0156 94.8516 50.0156C95.7734 50.0156 96.5391 50.2682 97.1484 50.7734C97.763 51.2786 98.0703 51.9974 98.0703 52.9297C98.0703 53.8359 97.7422 54.5755 97.0859 55.1484C96.4297 55.7161 95.5365 56 94.4062 56H91.0469V47.8438H92.6094ZM92.6094 54.6875H94.3047C95.0286 54.6875 95.5755 54.5312 95.9453 54.2188C96.3151 53.9062 96.5 53.4714 96.5 52.9141C96.5 52.3984 96.3411 52.0026 96.0234 51.7266C95.7057 51.4505 95.2344 51.3125 94.6094 51.3125C93.875 51.3125 93.2083 51.4818 92.6094 51.8203V54.6875ZM104.555 48.6719C105.44 47.9896 106.534 47.6484 107.836 47.6484C108.836 47.6484 109.633 47.8568 110.227 48.2734C110.82 48.6849 111.117 49.2552 111.117 49.9844C111.117 50.3281 111.036 50.638 110.875 50.9141C110.719 51.1849 110.5 51.388 110.219 51.5234V51.6484C110.615 51.8047 110.927 52.0443 111.156 52.3672C111.385 52.6901 111.5 53.0703 111.5 53.5078C111.5 54.3307 111.182 54.9844 110.547 55.4688C109.917 55.9531 108.948 56.1953 107.641 56.1953C106.917 56.1953 106.273 56.1068 105.711 55.9297C105.154 55.7474 104.615 55.4401 104.094 55.0078L104.859 53.9375C105.672 54.5677 106.599 54.8828 107.641 54.8828C109.167 54.8828 109.93 54.4453 109.93 53.5703C109.93 52.8099 109.471 52.4297 108.555 52.4297H106.414V51.1875H108.367C108.768 51.1875 109.07 51.0938 109.273 50.9062C109.477 50.7188 109.578 50.4583 109.578 50.125C109.578 49.3385 108.971 48.9453 107.758 48.9453C106.784 48.9453 105.956 49.2005 105.273 49.7109L104.555 48.6719ZM113.609 48.5938C114.604 47.9635 115.724 47.6484 116.969 47.6484C118.208 47.6484 119.128 47.9323 119.727 48.5C120.331 49.0677 120.633 49.8776 120.633 50.9297V53.9219C120.633 54.5521 120.846 54.8672 121.273 54.8672C121.388 54.8672 121.5 54.8438 121.609 54.7969L121.75 55.9844C121.536 56.0885 121.266 56.1406 120.938 56.1406C120.505 56.1406 120.159 56.0365 119.898 55.8281C119.638 55.6146 119.466 55.2604 119.383 54.7656C118.69 55.7188 117.635 56.1953 116.219 56.1953C115.24 56.1953 114.471 55.9609 113.914 55.4922C113.357 55.0182 113.078 54.3438 113.078 53.4688C113.078 52.6458 113.404 52 114.055 51.5312C114.706 51.0625 115.596 50.8281 116.727 50.8281C117.544 50.8281 118.339 50.9635 119.109 51.2344V50.7812C119.109 50.1875 118.938 49.7448 118.594 49.4531C118.25 49.1562 117.719 49.0078 117 49.0078C116.052 49.0078 115.13 49.2422 114.234 49.7109L113.609 48.5938ZM119.125 52.4453C118.458 52.2109 117.68 52.0938 116.789 52.0938C116.055 52.0938 115.516 52.2214 115.172 52.4766C114.833 52.7266 114.664 53.0703 114.664 53.5078C114.664 54.4141 115.276 54.8672 116.5 54.8672C117.229 54.8672 117.849 54.6719 118.359 54.2812C118.87 53.8906 119.125 53.3958 119.125 52.7969V52.4453ZM128.891 56V53.0078C128.25 53.3203 127.523 53.4922 126.711 53.5234L124.859 56H123L125.242 53.2188C124.674 53.0573 124.224 52.75 123.891 52.2969C123.562 51.8438 123.398 51.3125 123.398 50.7031C123.398 49.8333 123.719 49.1406 124.359 48.625C125.005 48.1042 125.901 47.8438 127.047 47.8438H130.438V56H128.891ZM128.891 49.1484H127.125C126.411 49.1484 125.872 49.2865 125.508 49.5625C125.148 49.8333 124.969 50.2135 124.969 50.7031C124.969 51.1927 125.135 51.5755 125.469 51.8516C125.807 52.1224 126.276 52.2578 126.875 52.2578C127.604 52.2578 128.276 52.0807 128.891 51.7266V49.1484ZM136.648 47.8438C137.529 47.8438 138.224 48.0391 138.734 48.4297C139.245 48.8203 139.5 49.3385 139.5 49.9844C139.5 50.7344 139.195 51.2526 138.586 51.5391V51.6641C139.044 51.7943 139.396 52.026 139.641 52.3594C139.885 52.6927 140.008 53.112 140.008 53.6172C140.008 54.3516 139.74 54.9323 139.203 55.3594C138.672 55.7865 137.896 56 136.875 56H132.797V47.8438H136.648ZM134.312 54.6719H137.031C137.995 54.6719 138.477 54.2995 138.477 53.5547C138.477 52.8047 137.984 52.4297 137 52.4297H134.312V54.6719ZM134.312 51.1484H136.742C137.128 51.1484 137.427 51.0599 137.641 50.8828C137.854 50.7005 137.961 50.4531 137.961 50.1406C137.961 49.4688 137.508 49.1328 136.602 49.1328H134.312V51.1484ZM143.5 47.8438V51.0547L145.008 50.9141L147.531 47.8438H149.469L146.336 51.5234L149.852 56H147.969L145.117 52.3359H143.5V56H141.953V47.8438H143.5ZM152.398 47.8438L155.344 54.3672H155.492L157.844 47.8438H159.57L155.844 56.8984C155.526 57.6745 155.159 58.237 154.742 58.5859C154.331 58.9401 153.807 59.1172 153.172 59.1172C152.568 59.1172 152.065 58.9792 151.664 58.7031L152.094 57.5078C152.365 57.6536 152.685 57.7266 153.055 57.7266C153.372 57.7266 153.638 57.6458 153.852 57.4844C154.065 57.3229 154.247 57.0573 154.398 56.6875L154.609 56.1094L150.578 47.8438H152.398Z" fill="black"/>
<path d="M0.292893 63.7071C-0.0976257 63.3166 -0.0976258 62.6834 0.292892 62.2929L6.65686 55.9289C7.04738 55.5384 7.68054 55.5384 8.07107 55.9289C8.46159 56.3195 8.46159 56.9526 8.07107 57.3432L2.41422 63L8.07108 68.6569C8.46159 69.0474 8.46159 69.6806 8.07108 70.0711C7.68054 70.4616 7.04738 70.4616 6.65686 70.0711L0.292893 63.7071ZM157 64L1 64L1 62L157 62L157 64Z" fill="#9C2E29"/>
</svg>
